<?xml version="1.0" encoding="UTF-8" standalone="no"?>
<!DOCTYPE svg PUBLIC "-//W3C//DTD SVG 1.1//EN" "http://www.w3.org/Graphics/SVG/1.1/DTD/svg11.dtd">
<svg version="1.1" xmlns="http://www.w3.org/2000/svg" xmlns:xlink="http://www.w3.org/1999/xlink" preserveAspectRatio="xMidYMid meet" viewBox="0 0 640 640" width="640" height="640"><defs><path d="M433.71 32.46L434.46 32.53L435.21 32.64L435.95 32.77L436.67 32.94L437.38 33.13L438.09 33.35L438.78 33.59L439.45 33.86L440.12 34.16L440.77 34.48L441.4 34.83L442.03 35.2L442.63 35.59L443.22 36L443.79 36.44L444.34 36.89L444.88 37.37L445.4 37.87L445.89 38.39L446.37 38.92L446.83 39.48L447.27 40.05L447.68 40.64L448.07 41.24L448.44 41.86L448.79 42.5L449.11 43.15L449.4 43.81L449.67 44.49L449.92 45.18L450.14 45.88L450.33 46.6L450.49 47.32L450.63 48.06L450.73 48.8L450.81 49.56L450.86 50.32L450.87 51.09L450.87 51.48L450.86 51.86L450.84 52.24L450.81 52.62L450.78 53L450.73 53.38L450.68 53.75L450.63 54.13L450.56 54.49L450.49 54.86L450.41 55.23L450.33 55.59L450.24 55.95L450.14 56.3L450.03 56.65L449.92 57L449.8 57.35L449.67 57.7L449.54 58.04L449.4 58.37L449.26 58.71L449.1 59.04L448.95 59.37L448.78 59.69L448.61 60.01L448.44 60.33L448.25 60.64L448.07 60.95L447.87 61.25L447.67 61.55L447.47 61.85L447.26 62.14L447.04 62.43L446.82 62.71L446.59 62.99L446.36 63.27L446.12 63.54L445.88 63.8L445.63 64.06L445.38 64.32L346.44 163.26L587.96 163.26L589.76 163.3L591.54 163.4L593.3 163.58L595.04 163.82L596.76 164.13L598.45 164.51L600.11 164.95L601.75 165.45L603.36 166.02L604.94 166.64L606.49 167.32L608.01 168.06L609.49 168.86L610.94 169.7L612.35 170.61L613.73 171.56L615.06 172.56L616.35 173.61L617.6 174.71L618.81 175.86L619.97 177.05L621.09 178.28L622.15 179.55L623.17 180.87L624.14 182.22L625.05 183.61L625.91 185.04L626.72 186.5L627.47 188L628.16 189.53L628.79 191.09L629.36 192.67L629.87 194.29L630.32 195.93L630.7 197.6L631.02 199.29L631.26 201L631.44 202.74L631.55 204.49L631.59 206.27L631.59 556.48L631.55 558.25L631.44 560L631.26 561.74L631.02 563.45L630.7 565.14L630.32 566.81L629.87 568.45L629.36 570.07L628.79 571.66L628.16 573.22L627.47 574.74L626.72 576.24L625.91 577.7L625.05 579.13L624.14 580.52L623.17 581.87L622.15 583.19L621.09 584.46L619.97 585.7L618.81 586.89L617.6 588.03L616.35 589.13L615.06 590.18L613.73 591.18L612.35 592.14L610.94 593.04L609.49 593.89L608.01 594.68L606.49 595.42L604.94 596.1L603.36 596.73L601.75 597.29L600.11 597.79L598.45 598.23L596.76 598.61L595.04 598.92L593.3 599.16L591.54 599.34L589.76 599.45L587.96 599.48L52.04 599.48L50.24 599.45L48.46 599.34L46.7 599.16L44.96 598.92L43.24 598.61L41.55 598.23L39.89 597.79L38.25 597.29L36.64 596.73L35.06 596.1L33.51 595.42L31.99 594.68L30.51 593.89L29.06 593.04L27.65 592.14L26.27 591.18L24.94 590.18L23.65 589.13L22.4 588.03L21.19 586.88L20.03 585.69L18.91 584.46L17.85 583.19L16.83 581.87L15.86 580.52L14.95 579.13L14.09 577.7L13.28 576.24L12.53 574.74L11.84 573.21L11.21 571.65L10.64 570.07L10.13 568.45L9.68 566.81L9.3 565.14L8.98 563.45L8.74 561.73L8.56 560L8.45 558.24L8.41 556.47L8.41 206.27L8.45 204.49L8.56 202.74L8.74 201L8.98 199.29L9.3 197.6L9.68 195.93L10.13 194.29L10.64 192.67L11.21 191.09L11.84 189.53L12.53 188L13.28 186.5L14.09 185.04L14.95 183.61L15.86 182.22L16.83 180.87L17.85 179.55L18.91 178.28L20.03 177.05L21.19 175.86L22.4 174.71L23.65 173.61L24.94 172.56L26.27 171.56L27.65 170.61L29.06 169.7L30.51 168.86L31.99 168.06L33.51 167.32L35.06 166.64L36.64 166.02L38.25 165.45L39.89 164.95L41.55 164.51L43.24 164.13L44.96 163.82L46.7 163.58L48.46 163.4L50.24 163.3L52.04 163.26L293.57 163.26L194.62 64.31L194.37 64.06L194.12 63.8L193.88 63.53L193.64 63.26L193.41 62.99L193.18 62.71L192.96 62.42L192.75 62.14L192.54 61.84L192.33 61.55L192.14 61.25L191.94 60.94L191.75 60.63L191.57 60.32L191.4 60L191.23 59.69L191.06 59.36L190.91 59.03L190.76 58.7L190.61 58.37L190.47 58.03L190.34 57.69L190.21 57.35L190.09 57L189.98 56.65L189.88 56.3L189.78 55.94L189.68 55.59L189.6 55.22L189.52 54.86L189.45 54.49L189.38 54.12L189.33 53.75L189.28 53.38L189.24 53L189.2 52.62L189.18 52.24L189.16 51.86L189.14 51.48L189.14 51.09L189.16 50.32L189.2 49.56L189.28 48.8L189.38 48.06L189.52 47.32L189.68 46.6L189.87 45.88L190.09 45.18L190.34 44.49L190.61 43.81L190.91 43.15L191.23 42.5L191.57 41.86L191.94 41.24L192.33 40.64L192.75 40.05L193.18 39.48L193.64 38.92L194.12 38.39L194.62 37.87L195.13 37.37L195.67 36.89L196.22 36.44L196.79 36L197.38 35.59L197.99 35.2L198.61 34.83L199.24 34.48L199.89 34.16L200.56 33.86L201.24 33.59L201.93 33.35L202.63 33.13L203.34 32.94L204.07 32.77L204.8 32.64L205.55 32.53L206.3 32.46L207.06 32.41L207.84 32.39L208.22 32.4L208.61 32.41L208.99 32.43L209.37 32.46L209.75 32.49L210.12 32.53L210.5 32.58L210.87 32.64L211.24 32.7L211.61 32.78L211.97 32.85L212.33 32.94L212.69 33.03L213.05 33.13L213.4 33.24L213.75 33.35L214.1 33.47L214.44 33.59L214.78 33.73L215.12 33.87L215.45 34.01L215.78 34.16L216.11 34.32L216.43 34.49L216.75 34.66L217.07 34.83L217.38 35.01L217.69 35.2L218 35.4L218.3 35.59L218.59 35.8L218.89 36.01L219.17 36.23L219.46 36.45L219.74 36.67L220.01 36.91L220.28 37.14L220.55 37.39L220.81 37.63L221.07 37.89L320.01 136.83L418.93 37.9L419.19 37.65L419.45 37.4L419.72 37.16L419.99 36.92L420.26 36.69L420.54 36.46L420.83 36.24L421.11 36.02L421.41 35.81L421.7 35.61L422.01 35.41L422.31 35.21L422.62 35.02L422.93 34.84L423.25 34.66L423.57 34.49L423.89 34.33L424.22 34.17L424.55 34.02L424.89 33.87L425.22 33.73L425.56 33.6L425.91 33.47L426.26 33.35L426.61 33.24L426.96 33.13L427.32 33.03L427.68 32.94L428.04 32.86L428.4 32.78L428.77 32.71L429.14 32.64L429.51 32.58L429.89 32.53L430.26 32.49L430.64 32.46L431.02 32.43L431.41 32.41L431.79 32.4L432.18 32.39L432.95 32.41L433.71 32.46ZM123.73 213.18L120.68 213.36L117.67 213.67L114.69 214.09L111.74 214.63L108.84 215.29L105.99 216.05L103.18 216.93L100.42 217.91L97.71 218.99L95.05 220.18L92.45 221.46L89.91 222.84L87.42 224.32L85 225.89L82.65 227.54L80.36 229.29L78.15 231.12L76.01 233.03L73.94 235.02L71.95 237.09L70.04 239.23L68.21 241.45L66.46 243.73L64.81 246.09L63.24 248.51L61.76 250.99L60.38 253.53L59.1 256.13L57.91 258.79L56.83 261.5L55.85 264.26L54.97 267.07L54.21 269.93L53.56 272.83L53.01 275.77L52.59 278.75L52.28 281.76L52.1 284.81L52.04 287.9L52.04 474.85L52.1 477.93L52.28 480.98L52.59 484L53.01 486.98L53.56 489.92L54.21 492.82L54.97 495.67L55.85 498.48L56.83 501.24L57.91 503.95L59.1 506.61L60.38 509.21L61.76 511.76L63.24 514.24L64.81 516.66L66.46 519.01L68.21 521.3L70.04 523.51L71.95 525.66L73.94 527.72L76.01 529.72L78.15 531.63L80.36 533.45L82.65 535.2L85 536.86L87.42 538.42L89.91 539.9L92.45 541.28L95.05 542.57L97.71 543.75L100.42 544.84L103.18 545.82L105.99 546.69L108.84 547.45L111.74 548.11L114.69 548.65L117.67 549.07L120.68 549.38L123.73 549.57L126.82 549.63L407.24 549.63L409.3 549.58L411.35 549.44L413.4 549.21L415.43 548.88L417.45 548.46L419.46 547.95L421.46 547.34L423.45 546.64L425.43 545.84L427.41 544.95L429.37 543.97L431.32 542.9L433.26 541.73L435.2 540.47L437.12 539.11L439.03 537.66L440.94 536.12L442.83 534.48L444.72 532.76L446.59 530.93L448.46 529.02L450.31 527.01L452.16 524.9L453.99 522.71L455.82 520.42L457.63 518.03L459.44 515.56L461.23 512.99L463.02 510.32L464.8 507.56L466.56 504.71L468.32 501.77L470.07 498.73L471.81 495.6L473.53 492.37L475.25 489.06L476.96 485.64L478.66 482.14L480.35 478.54L482.02 474.85L482.02 287.9L481.96 284.81L481.78 281.76L481.47 278.75L481.05 275.77L480.51 272.83L479.85 269.93L479.09 267.07L478.21 264.26L477.23 261.5L476.15 258.79L474.96 256.13L473.68 253.53L472.3 250.99L470.82 248.51L469.25 246.09L467.6 243.73L465.85 241.45L464.02 239.23L462.11 237.09L460.12 235.02L458.06 233.03L455.91 231.12L453.7 229.29L451.41 227.54L449.06 225.89L446.64 224.32L444.15 222.84L441.61 221.46L439.01 220.18L436.35 218.99L433.64 217.91L430.88 216.93L428.07 216.05L425.22 215.29L422.32 214.63L419.37 214.09L416.39 213.67L413.38 213.36L410.33 213.18L407.24 213.11L126.82 213.11L123.73 213.18ZM553.75 312.95L552.24 313.1L550.75 313.31L549.28 313.58L547.83 313.91L546.4 314.29L545 314.73L543.62 315.22L542.26 315.76L540.93 316.35L539.63 317L538.36 317.69L537.12 318.42L535.91 319.21L534.73 320.04L533.59 320.91L532.48 321.82L531.41 322.78L530.38 323.77L529.38 324.81L528.43 325.88L527.51 326.99L526.64 328.13L525.81 329.31L525.03 330.52L524.29 331.76L523.6 333.03L522.95 334.33L522.36 335.66L521.82 337.01L521.33 338.39L520.89 339.8L520.51 341.23L520.18 342.68L519.91 344.15L519.7 345.64L519.55 347.15L519.45 348.67L519.42 350.21L519.45 351.75L519.55 353.28L519.7 354.79L519.91 356.28L520.18 357.75L520.51 359.2L520.89 360.63L521.33 362.03L521.82 363.41L522.36 364.77L522.95 366.1L523.6 367.4L524.29 368.67L525.03 369.91L525.81 371.12L526.64 372.3L527.51 373.44L528.43 374.55L529.38 375.62L530.38 376.65L531.41 377.65L532.48 378.6L533.59 379.52L534.73 380.39L535.91 381.22L537.12 382L538.36 382.74L539.63 383.43L540.93 384.07L542.26 384.67L543.62 385.21L545 385.7L546.4 386.13L547.83 386.52L549.28 386.84L550.75 387.11L552.24 387.33L553.75 387.48L555.27 387.57L556.81 387.6L558.35 387.57L559.88 387.48L561.39 387.33L562.88 387.11L564.35 386.84L565.8 386.52L567.22 386.13L568.63 385.7L570.01 385.21L571.36 384.67L572.69 384.07L573.99 383.43L575.26 382.74L576.51 382L577.72 381.22L578.89 380.39L580.04 379.52L581.14 378.6L582.21 377.65L583.25 376.65L584.24 375.62L585.2 374.55L586.11 373.44L586.99 372.3L587.82 371.12L588.6 369.91L589.34 368.67L590.03 367.4L590.67 366.1L591.26 364.77L591.81 363.41L592.3 362.03L592.73 360.63L593.12 359.2L593.44 357.75L593.71 356.28L593.92 354.79L594.08 353.28L594.17 351.75L594.2 350.21L594.17 348.67L594.08 347.15L593.92 345.64L593.71 344.15L593.44 342.68L593.12 341.23L592.73 339.8L592.3 338.39L591.81 337.01L591.26 335.66L590.67 334.33L590.03 333.03L589.34 331.76L588.6 330.52L587.82 329.31L586.99 328.13L586.11 326.99L585.2 325.88L584.24 324.81L583.25 323.77L582.21 322.78L581.14 321.82L580.04 320.91L578.89 320.04L577.72 319.21L576.51 318.42L575.26 317.69L573.99 317L572.69 316.35L571.36 315.76L570.01 315.22L568.63 314.73L567.22 314.29L565.8 313.91L564.35 313.58L562.88 313.31L561.39 313.1L559.88 312.95L558.35 312.85L556.81 312.82L555.27 312.85L553.75 312.95ZM553.75 213.24L552.24 213.39L550.75 213.6L549.28 213.87L547.83 214.2L546.4 214.58L545 215.02L543.62 215.51L542.26 216.05L540.93 216.65L539.63 217.29L538.36 217.98L537.12 218.72L535.91 219.5L534.73 220.33L533.59 221.2L532.48 222.11L531.41 223.07L530.38 224.07L529.38 225.1L528.43 226.17L527.51 227.28L526.64 228.42L525.81 229.6L525.03 230.81L524.29 232.05L523.6 233.32L522.95 234.62L522.36 235.95L521.82 237.31L521.33 238.69L520.89 240.09L520.51 241.52L520.18 242.97L519.91 244.44L519.7 245.93L519.55 247.44L519.45 248.96L519.42 250.51L519.45 252.05L519.55 253.57L519.7 255.08L519.91 256.57L520.18 258.04L520.51 259.49L520.89 260.92L521.33 262.32L521.82 263.7L522.36 265.06L522.95 266.39L523.6 267.69L524.29 268.96L525.03 270.2L525.81 271.41L526.64 272.59L527.51 273.73L528.43 274.84L529.38 275.91L530.38 276.94L531.41 277.94L532.48 278.9L533.59 279.81L534.73 280.68L535.91 281.51L537.12 282.29L538.36 283.03L539.63 283.72L540.93 284.36L542.26 284.96L543.62 285.5L545 285.99L546.4 286.43L547.83 286.81L549.28 287.14L550.75 287.41L552.24 287.62L553.75 287.77L555.27 287.86L556.81 287.9L558.35 287.86L559.88 287.77L561.39 287.62L562.88 287.41L564.35 287.14L565.8 286.81L567.22 286.43L568.63 285.99L570.01 285.5L571.36 284.96L572.69 284.36L573.99 283.72L575.26 283.03L576.51 282.29L577.72 281.51L578.89 280.68L580.04 279.81L581.14 278.9L582.21 277.94L583.25 276.94L584.24 275.91L585.2 274.84L586.11 273.73L586.99 272.59L587.82 271.41L588.6 270.2L589.34 268.96L590.03 267.69L590.67 266.39L591.26 265.06L591.81 263.7L592.3 262.32L592.73 260.92L593.12 259.49L593.44 258.04L593.71 256.57L593.92 255.08L594.08 253.57L594.17 252.05L594.2 250.51L594.17 248.96L594.08 247.44L593.92 245.93L593.71 244.44L593.44 242.97L593.12 241.52L592.73 240.09L592.3 238.69L591.81 237.31L591.26 235.95L590.67 234.62L590.03 233.32L589.34 232.05L588.6 230.81L587.82 229.6L586.99 228.42L586.11 227.28L585.2 226.17L584.24 225.1L583.25 224.07L582.21 223.07L581.14 222.11L580.04 221.2L578.89 220.33L577.72 219.5L576.51 218.72L575.26 217.98L573.99 217.29L572.69 216.65L571.36 216.05L570.01 215.51L568.63 215.02L567.22 214.58L565.8 214.2L564.35 213.87L562.88 213.6L561.39 213.39L559.88 213.24L558.35 213.15L556.81 213.11L555.27 213.15L553.75 213.24Z" id="b2rvkyw4D"></path><path d="M144.33 307.95C141.5 312.49 139.8 317.6 139.8 321.56C140.36 331.77 148.87 345.95 163.62 345.95C163.62 345.95 164.18 345.95 164.18 345.95C174.96 345.38 183.46 341.98 188.57 335.74C192.54 331.21 194.24 324.97 194.24 319.3C194.24 319.3 194.24 319.3 194.24 319.3C196.54 319.79 208.07 322.25 228.83 326.67L232.23 303.42L116.55 279.03L113.71 301.72C132.09 305.46 142.29 307.54 144.33 307.95Z" id="b16P7lPFx0"></path><path d="M298.01 297.18L301.42 320.43C322.17 316.01 333.7 313.55 336.01 313.06C337.71 323.27 341.68 331.21 348.49 335.74C353.59 339.14 359.83 340.85 365.5 339.71C371.74 339.14 391.02 334.04 388.18 309.09C388.18 306.82 387.05 304.55 385.91 302.28C387.99 301.83 398.39 299.56 417.1 295.48L413.7 272.8L298.01 297.18Z" id="adQcb6f6c"></path><path d="M30.35 590.01L30.35 174.9L482.32 165.82L500.46 586.04L30.35 590.01ZM67.78 373.38L465.31 368.27L450.56 248.05L75.15 260.53L67.78 373.38Z" id="f2ikXhBQW"></path></defs><g><g><g><use xlink:href="#b2rvkyw4D" opacity="1" fill="#ffffff" fill-opacity="1"></use><g><use xlink:href="#b2rvkyw4D" opacity="1" fill-opacity="0" stroke="#ffffff" stroke-width="1" stroke-opacity="0"></use></g></g><g><use xlink:href="#b16P7lPFx0" opacity="1" fill="#ffffff" fill-opacity="1"></use><g><use xlink:href="#b16P7lPFx0" opacity="1" fill-opacity="0" stroke="#ffffff" stroke-width="1" stroke-opacity="0"></use></g></g><g><use xlink:href="#adQcb6f6c" opacity="1" fill="#ffffff" fill-opacity="1"></use><g><use xlink:href="#adQcb6f6c" opacity="1" fill-opacity="0" stroke="#ffffff" stroke-width="1" stroke-opacity="0"></use></g></g><g><use xlink:href="#f2ikXhBQW" opacity="1" fill="#ffffff" fill-opacity="0.89"></use><g><use xlink:href="#f2ikXhBQW" opacity="1" fill-opacity="0" stroke="#ffffff" stroke-width="1" stroke-opacity="0"></use></g></g></g></g></svg>
